<svg xmlns="http://www.w3.org/2000/svg" aria-hidden="true">
  <symbol id="hi-menu-01" viewBox="0 0 24 24">
    <path d="M4 6h16M4 12h16M4 18h16" />
  </symbol>
  <symbol id="hi-cancel-01" viewBox="0 0 24 24">
    <path d="M6 6l12 12M18 6 6 18" />
  </symbol>
  <symbol id="hi-sun-03" viewBox="0 0 24 24">
    <circle cx="12" cy="12" r="4" />
    <path d="M12 2v3M12 19v3M4.9 4.9l2.1 2.1M16.9 16.9l2.1 2.1M2 12h3M19 12h3M4.9 19.1l2.1-2.1M16.9 7.1l2.1-2.1" />
  </symbol>
  <symbol id="hi-moon-02" viewBox="0 0 24 24">
    <path d="M18 14.5A7.5 7.5 0 1 1 9.5 6a6.5 6.5 0 0 0 8.5 8.5Z" />
  </symbol>
  <symbol id="hi-arrow-up-right-01" viewBox="0 0 24 24">
    <path d="M7 17 17 7" />
    <path d="M9 7h8v8" />
  </symbol>
  <symbol id="hi-arrow-up-01" viewBox="0 0 24 24">
    <path d="M12 19V5" />
    <path d="M6.5 10.5 12 5l5.5 5.5" />
  </symbol>
  <symbol id="hi-mail-01" viewBox="0 0 24 24">
    <rect x="4" y="6" width="16" height="12" rx="2" />
    <path d="m5 7 7 6 7-6" />
  </symbol>
  <symbol id="hi-location-01" viewBox="0 0 24 24">
    <path d="M12 21s6-5.3 6-11a6 6 0 1 0-12 0c0 5.7 6 11 6 11Z" />
    <circle cx="12" cy="10" r="2.2" />
  </symbol>
  <symbol id="hi-linkedin-01" viewBox="0 0 24 24">
    <path d="M6 9v9" />
    <path d="M6 6.5v.5" />
    <path d="M10 18v-5.2c0-1.9 1.1-3.3 2.8-3.3 1.8 0 2.7 1.2 2.7 3.1V18" />
    <path d="M10 12v6" />
  </symbol>
  <symbol id="hi-github" viewBox="0 0 24 24">
    <path d="M9 19c-4 1.2-4-1.9-5-2.2" />
    <path d="M15 19v-3.1c0-.9.3-1.6.8-2.1-2.7-.3-5.6-1.4-5.6-6.2 0-1.4.5-2.6 1.3-3.5-.1-.3-.6-1.7.1-3.5 0 0 1.1-.3 3.6 1.3a12.8 12.8 0 0 1 6.6 0c2.5-1.6 3.6-1.3 3.6-1.3.7 1.8.2 3.2.1 3.5.8.9 1.3 2.1 1.3 3.5 0 4.8-2.9 5.9-5.6 6.2.5.5.8 1.3.8 2.6V19" transform="translate(-5)" />
  </symbol>
  <symbol id="hi-new-twitter" viewBox="0 0 24 24">
    <path d="M5 18.5c8.5 0 13.2-7 13.2-13.1v-.6A9.2 9.2 0 0 0 21 2.5a8.9 8.9 0 0 1-2.6.7A4.6 4.6 0 0 0 20.4.8a9 9 0 0 1-2.8 1.1 4.5 4.5 0 0 0-7.8 3.1c0 .4 0 .8.1 1.1A12.8 12.8 0 0 1 4 1.4a4.5 4.5 0 0 0 1.4 6 4.4 4.4 0 0 1-2-.6v.1a4.5 4.5 0 0 0 3.6 4.4 4.5 4.5 0 0 1-2 .1 4.5 4.5 0 0 0 4.2 3.1A9 9 0 0 1 3 17.4a12.7 12.7 0 0 0 7 2" />
  </symbol>
  <symbol id="hi-clock-01" viewBox="0 0 24 24">
    <circle cx="12" cy="12" r="8" />
    <path d="M12 8v4l3 2" />
  </symbol>
  <symbol id="hi-code-01" viewBox="0 0 24 24">
    <path d="m9 8-4 4 4 4" />
    <path d="m15 8 4 4-4 4" />
  </symbol>
  <symbol id="hi-shopping-cart-01" viewBox="0 0 24 24">
    <path d="M5 6h2l1.4 8.5a1 1 0 0 0 1 .8h7.8a1 1 0 0 0 1-.7L20 9H8.1" />
    <circle cx="10" cy="19" r="1.2" />
    <circle cx="17" cy="19" r="1.2" />
  </symbol>
  <symbol id="hi-ai-brain-01" viewBox="0 0 24 24">
    <path d="M9 4a3 3 0 0 0-3 3v.3A3.2 3.2 0 0 0 4.5 10 3.5 3.5 0 0 0 6 16.4V17a3 3 0 0 0 3 3h1" />
    <path d="M15 4a3 3 0 0 1 3 3v.3A3.2 3.2 0 0 1 19.5 10 3.5 3.5 0 0 1 18 16.4V17a3 3 0 0 1-3 3h-1" />
    <path d="M9.5 8.5c0-1.4 1-2.5 2.5-2.5s2.5 1.1 2.5 2.5-1 2.5-2.5 2.5-2.5-1.1-2.5-2.5Z" />
  </symbol>
  <symbol id="hi-database-01" viewBox="0 0 24 24">
    <ellipse cx="12" cy="6.5" rx="7.5" ry="3.5" />
    <path d="M4.5 6.5v5.5c0 1.9 3.4 3.5 7.5 3.5s7.5-1.6 7.5-3.5V6.5" />
    <path d="M4.5 12v5.5c0 1.9 3.4 3.5 7.5 3.5s7.5-1.6 7.5-3.5V12" />
  </symbol>
  <symbol id="hi-alert-triangle" viewBox="0 0 24 24">
    <path d="M12 4 3.5 19h17L12 4Z" />
    <path d="M12 9v4" />
    <path d="M12 16.5v.5" />
  </symbol>
</svg>
