<svg xmlns="http://www.w3.org/2000/svg" viewBox="0 0 1200 900" role="img" aria-label="TechBar storefront preview">
  <rect width="1200" height="900" fill="#f4f4f4"/>
  <rect x="72" y="72" width="1056" height="756" rx="36" fill="#ffffff" stroke="#d4d4d4"/>
  <rect x="104" y="112" width="212" height="28" rx="14" fill="#171717"/>
  <rect x="348" y="110" width="250" height="32" rx="16" fill="#e5e5e5"/>
  <rect x="626" y="110" width="122" height="32" rx="16" fill="#d4d4d4"/>
  <rect x="774" y="110" width="122" height="32" rx="16" fill="#cfcfcf"/>
  <rect x="104" y="182" width="992" height="246" rx="30" fill="#d8d8d8"/>
  <rect x="144" y="230" width="382" height="26" rx="13" fill="#171717"/>
  <rect x="144" y="276" width="294" height="22" rx="11" fill="#a3a3a3"/>
  <rect x="144" y="330" width="188" height="54" rx="27" fill="#171717"/>
  <rect x="620" y="218" width="376" height="152" rx="26" fill="#111827"/>
  <rect x="656" y="250" width="124" height="22" rx="11" fill="#f9fafb"/>
  <rect x="656" y="292" width="186" height="18" rx="9" fill="#d1d5db"/>
  <rect x="104" y="472" width="992" height="238" rx="28" fill="#eeeeee"/>
  <rect x="142" y="514" width="198" height="22" rx="11" fill="#171717"/>
  <rect x="142" y="566" width="196" height="126" rx="22" fill="#6b7280"/>
  <rect x="362" y="566" width="196" height="126" rx="22" fill="#0f766e"/>
  <rect x="582" y="566" width="196" height="126" rx="22" fill="#d97706"/>
  <rect x="802" y="566" width="196" height="126" rx="22" fill="#111111"/>
</svg>
