<svg xmlns="http://www.w3.org/2000/svg" viewBox="0 0 1200 900" role="img" aria-label="VSV Legal Chambers homepage preview">
  <rect width="1200" height="900" fill="#f3f3f3"/>
  <rect x="64" y="64" width="1072" height="772" rx="36" fill="#ffffff" stroke="#d4d4d4"/>
  <rect x="104" y="118" width="308" height="36" rx="18" fill="#171717"/>
  <rect x="104" y="184" width="420" height="220" rx="28" fill="#d9d9d9"/>
  <rect x="560" y="124" width="516" height="22" rx="11" fill="#a3a3a3"/>
  <rect x="560" y="170" width="364" height="22" rx="11" fill="#bdbdbd"/>
  <rect x="560" y="216" width="442" height="22" rx="11" fill="#cfcfcf"/>
  <rect x="560" y="276" width="180" height="54" rx="27" fill="#171717"/>
  <rect x="104" y="450" width="984" height="308" rx="28" fill="#eeeeee"/>
  <rect x="142" y="488" width="246" height="22" rx="11" fill="#171717"/>
  <rect x="142" y="536" width="874" height="18" rx="9" fill="#b0b0b0"/>
  <rect x="142" y="572" width="720" height="18" rx="9" fill="#c2c2c2"/>
  <rect x="142" y="620" width="172" height="98" rx="22" fill="#6b7280"/>
  <rect x="332" y="620" width="172" height="98" rx="22" fill="#9ca3af"/>
  <rect x="522" y="620" width="172" height="98" rx="22" fill="#d97706"/>
  <rect x="712" y="620" width="172" height="98" rx="22" fill="#f59e0b"/>
  <rect x="902" y="620" width="124" height="98" rx="22" fill="#111111"/>
</svg>
